<svg width="29" height="29" viewBox="0 0 29 29" fill="none" xmlns="http://www.w3.org/2000/svg">
<path d="M2.05621 10.4274L2.6141 11.7827H1.5015L2.05621 10.4274Z" fill="#515A63"/>
<path d="M14.9044 11.2431C14.7924 11.3108 14.6599 11.3131 14.5012 11.3131H13.511V10.5579H14.5147C14.6568 10.5579 14.805 10.5643 14.9012 10.6193C15.007 10.6688 15.0724 10.7742 15.0724 10.9198C15.0724 11.0684 15.0102 11.188 14.9044 11.2431Z" fill="#515A63"/>
<path d="M21.4044 10.4274L21.9684 11.7827H20.8434L21.4044 10.4274Z" fill="#515A63"/>
<path fill-rule="evenodd" clip-rule="evenodd" d="M0 13.9176H1.39278L1.7068 13.1624H2.40983L2.72302 13.9176H5.46323V13.3402L5.70782 13.92H7.13033L7.37492 13.3316V13.9176H14.1848L14.1817 12.678H14.3134C14.4057 12.6812 14.4326 12.6897 14.4326 12.8415V13.9176H17.9547V13.629C18.2388 13.7808 18.6807 13.9176 19.2622 13.9176H20.7439L21.061 13.1624H21.764L22.0742 13.9176H24.9296V13.2002L25.362 13.9176H27.6501V9.17578H25.3856V9.73579L25.0685 9.17578H22.7449V9.73579L22.4537 9.17578H19.315C18.7896 9.17578 18.3278 9.2489 17.9547 9.45266V9.17578H15.7888V9.45266C15.5514 9.24264 15.2279 9.17578 14.8682 9.17578H6.95516L6.42422 10.4005L5.87897 9.17578H3.38655V9.73579L3.11275 9.17578H0.987114L0 11.4303V13.9176ZM12.1311 13.2498H9.40819V9.84992H12.1311V10.5579H10.2233V11.1707H12.0853V11.8676H10.2233V12.5466H12.1311V13.2498ZM7.96511 13.2498H8.80061V9.84992H7.44352L6.46361 12.1563L5.39688 9.84992H4.06653V13.0689L2.68023 9.84992H1.4692L0.00956225 13.2498H0.894849L1.21124 12.4914H2.90837L3.22157 13.2498H4.87941V10.5847L6.06442 13.2498H6.7801L7.96202 10.587L7.96511 13.2498ZM15.9703 10.7656C15.9703 11.3076 15.6074 11.5877 15.396 11.6718C15.5743 11.7395 15.7267 11.859 15.7992 11.9581C15.9143 12.1272 15.9341 12.2782 15.9341 12.5819V13.2498H15.112L15.1089 12.821C15.1089 12.8003 15.1091 12.7786 15.1093 12.7563C15.1112 12.5581 15.1135 12.3057 14.9802 12.1587C14.8611 12.0391 14.6796 12.0132 14.3861 12.0132H13.5111V13.2498H12.6961V9.84992H14.5709C14.9874 9.84992 15.2944 9.86089 15.5579 10.0128C15.8157 10.1646 15.9703 10.3863 15.9703 10.7656ZM17.2748 13.2498H16.4431V9.84992H17.2748V13.2498ZM26.9235 13.2498H25.7685L24.2234 10.698V13.2498H22.5634L22.2462 12.4914H20.553L20.2453 13.2498H19.2915C18.8953 13.2498 18.3936 13.1624 18.1095 12.8737C17.8231 12.5851 17.6741 12.194 17.6741 11.5758C17.6741 11.0716 17.7631 10.6106 18.1135 10.2464C18.377 9.97503 18.7896 9.84992 19.3513 9.84992H20.1405V10.5784H19.3679C19.0704 10.5784 18.9025 10.6225 18.7407 10.7798C18.6017 10.923 18.5064 11.1936 18.5064 11.5499C18.5064 11.9142 18.579 12.1768 18.7305 12.3484C18.856 12.4829 19.084 12.5237 19.2986 12.5237H19.6646L20.8134 9.85002H22.0348L23.4148 13.0658V9.85002H24.6559L26.0886 12.2178V9.85002H26.9235V13.2498Z" fill="#515A63"/>
<path d="M17.9911 17.1688C18.1497 17.1688 18.2845 17.1633 18.3935 17.0988C18.4992 17.0351 18.5623 16.9179 18.5623 16.7724C18.5623 16.6269 18.4992 16.5216 18.3935 16.4665C18.2949 16.4081 18.1497 16.4051 18.0045 16.4051H17.0009V17.1688H17.9911Z" fill="#515A63"/>
<path d="M11.2994 17.4079L12.5509 18.7931V16.0667L11.2994 17.4079Z" fill="#515A63"/>
<path d="M7.31494 18.3937H9.319L10.2501 17.396L9.3585 16.405H7.31494V17.0232H9.10444V17.7171H7.31494V18.3937Z" fill="#515A63"/>
<path d="M13.3627 17.2711H14.4161C14.7293 17.2711 14.9241 17.1161 14.9241 16.822C14.9241 16.5246 14.7198 16.4051 14.4255 16.4051H13.3627V17.2711Z" fill="#515A63"/>
<path fill-rule="evenodd" clip-rule="evenodd" d="M29 18.6673C28.802 18.956 28.4162 19.1024 27.8939 19.1024H26.3198V18.3731H27.8875C28.043 18.3731 28.1518 18.3527 28.2174 18.2889C28.2741 18.2363 28.3137 18.1599 28.3137 18.0671C28.3137 17.9681 28.2741 17.8894 28.2142 17.8423C28.155 17.7904 28.0689 17.7668 27.927 17.7668C27.8769 17.7651 27.8261 17.7637 27.7747 17.7623C27.0408 17.7425 26.2068 17.72 26.2068 16.7142C26.2068 16.221 26.5209 15.7018 27.3763 15.7018H28.9999V15.0252H27.4914C27.0362 15.0252 26.7055 15.1339 26.4713 15.3029V15.0252H24.24C23.8832 15.0252 23.4644 15.1134 23.2663 15.3029V15.0252H19.2818V15.3029C18.9647 15.0748 18.4296 15.0252 18.1827 15.0252H15.5545V15.3029C15.3036 15.0607 14.7457 15.0252 14.4057 15.0252H11.4643L10.7912 15.7514L10.1608 15.0252H5.76696V19.7702H10.0781L10.7717 19.0325L11.425 19.7702L14.0824 19.7726V18.6564H14.3437C14.6962 18.6618 15.1121 18.6477 15.479 18.4895V19.7701H17.6709V18.5334H17.7766C17.9115 18.5334 17.9248 18.539 17.9248 18.6734V19.77H24.5833C25.0061 19.77 25.4479 19.6622 25.6926 19.4664V19.77H27.8047C28.2442 19.77 28.6734 19.7086 29 19.5513V18.6673ZM25.7486 17.3088C25.9073 17.4726 25.9924 17.6793 25.9924 18.0293C25.9924 18.7609 25.5339 19.1023 24.7119 19.1023H23.1243V18.3731H24.7055C24.8601 18.3731 24.9698 18.3527 25.0385 18.2889C25.0945 18.2363 25.1348 18.1599 25.1348 18.0671C25.1348 17.9681 25.0912 17.8894 25.0353 17.8422C24.973 17.7904 24.887 17.7668 24.745 17.7668C24.6951 17.7651 24.6444 17.7637 24.5931 17.7623C23.8618 17.7425 23.0281 17.7199 23.0281 16.7142C23.0281 16.221 23.339 15.7018 24.1935 15.7018H25.8276V16.4256H24.3324C24.1842 16.4256 24.0878 16.4311 24.0058 16.487C23.9165 16.542 23.8834 16.6238 23.8834 16.7317C23.8834 16.8599 23.9592 16.9472 24.0618 16.9849C24.1477 17.0148 24.2401 17.0235 24.379 17.0235L24.8177 17.0353C25.2602 17.0461 25.564 17.1224 25.7486 17.3088ZM18.8858 17.522C19.0672 17.5887 19.2156 17.7084 19.2851 17.8075C19.4002 17.9735 19.4168 18.1285 19.4201 18.4282V19.1023H18.6018V18.6769C18.6018 18.6565 18.602 18.6351 18.6022 18.6129C18.604 18.4133 18.6064 18.1536 18.4701 18.0112C18.3509 17.8894 18.1694 17.8603 17.872 17.8603H17.001V19.1023H16.1819V15.7017H18.0638C18.4764 15.7017 18.777 15.7198 19.0445 15.8622C19.3018 16.0171 19.4635 16.2294 19.4635 16.6173C19.4634 17.1601 19.1004 17.4371 18.8858 17.522ZM19.9155 15.7017H22.636V16.4049H20.7272V17.0232H22.5894V17.717H20.7272V18.3936L22.636 18.3967V19.1023H19.9155V15.7017ZM15.7992 16.822C15.7992 17.7667 15.0922 17.9617 14.3798 17.9617H13.3627V19.1023H11.7784L10.7747 17.9766L9.73166 19.1023H6.503V15.7017H9.78134L10.7842 16.8164L11.821 15.7017H14.4255C15.0724 15.7017 15.7992 15.8802 15.7992 16.822Z" fill="#515A63"/>
<path d="M27.5144 16.4253H29V17.393C28.9987 17.3913 28.9973 17.3896 28.996 17.3879L28.9918 17.3823L28.9896 17.3795L28.9895 17.3794C28.9708 17.3549 28.9523 17.3307 28.9244 17.3088C28.743 17.1225 28.4454 17.0461 27.9996 17.0351L27.5578 17.0233C27.4221 17.0233 27.3297 17.0146 27.2437 16.9847C27.1381 16.947 27.0655 16.8597 27.0655 16.7314C27.0655 16.6236 27.0986 16.5418 27.1846 16.4868C27.2676 16.4309 27.3661 16.4253 27.5144 16.4253Z" fill="#515A63"/>
</svg>
