<svg width="16" height="18" viewBox="0 0 16 18" xmlns="http://www.w3.org/2000/svg">
<path fill-rule="evenodd" clip-rule="evenodd" d="M6.02102 1.8601C6.02102 1.76069 6.1016 1.6801 6.20102 1.6801H10.161C10.2604 1.6801 10.341 1.76069 10.341 1.8601V3.3001H7.64078H6.02102V1.8601ZM4.94102 3.3001V1.8601C4.94102 1.16422 5.50514 0.600098 6.20102 0.600098H10.161C10.8569 0.600098 11.421 1.16422 11.421 1.8601V3.3001H15.2008V4.3801H14.6188L13.5388 17.7001H2.83601L1.39601 4.3801H0.800781V3.3001H4.94102ZM2.48231 4.3801L3.80555 16.6201H12.5428L13.5352 4.3801H2.48231ZM5.1209 14.4601V6.54014H6.2009V14.4601H5.1209ZM7.64043 6.54014V14.4601H8.72043V6.54014H7.64043ZM10.16 14.4601V6.54014H11.24V14.4601H10.16Z"/>
</svg>
