<svg width="29" height="23" viewBox="0 0 29 23" fill="none" xmlns="http://www.w3.org/2000/svg">
<path d="M5.27541 22.6586V21.1651C5.28418 21.0395 5.26605 20.9135 5.22226 20.7954C5.17846 20.6774 5.11 20.57 5.02143 20.4805C4.93287 20.391 4.82624 20.3214 4.70865 20.2763C4.59107 20.2313 4.46523 20.2119 4.33954 20.2193C4.17503 20.2086 4.01066 20.2422 3.86356 20.3166C3.71646 20.391 3.59202 20.5035 3.50321 20.6424C3.42226 20.5077 3.30648 20.3973 3.16806 20.3228C3.02963 20.2483 2.87369 20.2126 2.71665 20.2193C2.57976 20.2124 2.44345 20.2414 2.32121 20.3034C2.19897 20.3654 2.09503 20.4582 2.01971 20.5727V20.279H1.50195V22.6586H2.02466V21.3394C2.01336 21.258 2.02023 21.1751 2.04477 21.0966C2.06931 21.0182 2.11092 20.9462 2.1666 20.8857C2.22229 20.8253 2.29067 20.7779 2.36683 20.747C2.443 20.7162 2.52506 20.7025 2.60712 20.7071C2.95061 20.7071 3.12487 20.9312 3.12487 21.3344V22.6586H3.64757V21.3394C3.63712 21.2581 3.64458 21.1755 3.66944 21.0975C3.69429 21.0194 3.73594 20.9478 3.79145 20.8875C3.84696 20.8272 3.91499 20.7799 3.99075 20.7487C4.06652 20.7176 4.14819 20.7034 4.23002 20.7071C4.58345 20.7071 4.75271 20.9312 4.75271 21.3344V22.6586H5.27541ZM13.0115 20.279H12.1652V19.5572H11.6425V20.279H11.1596V20.752H11.6425V21.8372C11.6425 22.3897 11.8566 22.7183 12.4689 22.7183C12.6976 22.719 12.9219 22.6552 13.116 22.5341L12.9667 22.0911C12.8279 22.1739 12.6703 22.2201 12.5087 22.2255C12.2498 22.2255 12.1652 22.0661 12.1652 21.8273V20.752H13.0115V20.279ZM17.4272 20.2193C17.3009 20.2156 17.176 20.246 17.0656 20.3073C16.9553 20.3686 16.8635 20.4586 16.7999 20.5678V20.279H16.2872V22.6586H16.8049V21.3244C16.8049 20.9312 16.9741 20.7121 17.3127 20.7121C17.4234 20.7106 17.5334 20.7309 17.6362 20.7719L17.7955 20.284C17.6773 20.2417 17.5527 20.2198 17.4272 20.2193ZM10.7514 20.4682C10.4584 20.2939 10.1214 20.2075 9.78068 20.2193C9.17831 20.2193 8.79004 20.508 8.79004 20.9809C8.79004 21.3693 9.07876 21.6082 9.61139 21.6829L9.85534 21.7177C10.1391 21.7575 10.2735 21.8322 10.2735 21.9666C10.2735 22.1508 10.0843 22.2554 9.73089 22.2554C9.44659 22.2635 9.1678 22.1759 8.93935 22.0064L8.69544 22.4097C8.997 22.6203 9.35823 22.7285 9.72591 22.7183C10.4129 22.7183 10.8111 22.3947 10.8111 21.9417C10.8111 21.5236 10.4975 21.3045 9.97981 21.2298L9.7359 21.195C9.51185 21.1651 9.33266 21.1204 9.33266 20.9611C9.33266 20.7868 9.50186 20.6822 9.78566 20.6822C10.0462 20.6862 10.3015 20.7564 10.5274 20.8864L10.7514 20.4682ZM24.6206 20.2193C24.4944 20.2156 24.3695 20.246 24.2591 20.3073C24.1487 20.3686 24.0569 20.4586 23.9934 20.5678V20.279H23.4806V22.6586H23.9983V21.3244C23.9983 20.9312 24.1676 20.7121 24.5061 20.7121C24.6169 20.7106 24.7268 20.7309 24.8297 20.7719L24.989 20.284C24.8708 20.2417 24.7462 20.2198 24.6206 20.2193ZM17.9498 21.4688C17.943 21.6364 17.9713 21.8036 18.0329 21.9597C18.0945 22.1157 18.1881 22.2571 18.3077 22.3748C18.4273 22.4925 18.5702 22.5839 18.7272 22.6431C18.8842 22.7022 19.0518 22.7279 19.2193 22.7183C19.5302 22.734 19.8356 22.6327 20.0755 22.4346L19.8266 22.0164C19.6477 22.1528 19.4294 22.2279 19.2044 22.2304C19.0104 22.2187 18.8281 22.1333 18.6949 21.9918C18.5617 21.8502 18.4875 21.6632 18.4875 21.4688C18.4875 21.2744 18.5617 21.0874 18.6949 20.9458C18.8281 20.8043 19.0104 20.7189 19.2044 20.7071C19.4294 20.7097 19.6477 20.7848 19.8266 20.9212L20.0755 20.503C19.8356 20.3049 19.5301 20.2037 19.2193 20.2193C19.0518 20.2098 18.8842 20.2354 18.7272 20.2946C18.5702 20.3537 18.4273 20.4451 18.3077 20.5627C18.1882 20.6804 18.0946 20.8218 18.0329 20.9779C17.9713 21.1339 17.943 21.3011 17.9498 21.4688ZM22.7986 21.4688V20.279H22.2809V20.5678C22.1925 20.4539 22.0781 20.3628 21.9474 20.3022C21.8166 20.2416 21.6732 20.2131 21.5292 20.2193C21.2084 20.235 20.9059 20.3735 20.6844 20.6061C20.4629 20.8387 20.3394 21.1476 20.3394 21.4688C20.3394 21.79 20.4629 22.0989 20.6844 22.3315C20.9059 22.5641 21.2084 22.7026 21.5292 22.7183C21.6732 22.7245 21.8166 22.6961 21.9474 22.6354C22.0782 22.5748 22.1925 22.4837 22.2809 22.3698V22.6586H22.7986V21.4688ZM20.872 21.4688C20.8801 21.3283 20.929 21.1933 21.0129 21.0804C21.0967 20.9675 21.2118 20.8816 21.3438 20.8332C21.4759 20.7849 21.6193 20.7763 21.7562 20.8085C21.8931 20.8407 22.0176 20.9122 22.1144 21.0143C22.2111 21.1164 22.2759 21.2445 22.3007 21.383C22.3254 21.5214 22.3092 21.6641 22.2538 21.7934C22.1985 21.9227 22.1065 22.033 21.9893 22.1106C21.872 22.1883 21.7346 22.23 21.5939 22.2304C21.4953 22.2318 21.3975 22.2127 21.3067 22.1743C21.2159 22.136 21.134 22.0793 21.0661 22.0077C20.9983 21.9362 20.9461 21.8513 20.9127 21.7586C20.8793 21.6658 20.8654 21.5671 20.872 21.4688ZM14.6245 20.2193C14.3016 20.2363 13.9979 20.3777 13.777 20.6138C13.5561 20.8498 13.4352 21.1623 13.4397 21.4856C13.4443 21.8089 13.5738 22.1178 13.8012 22.3477C14.0285 22.5775 14.3361 22.7104 14.6593 22.7183C15.0145 22.7308 15.3618 22.6121 15.635 22.3848L15.3811 22.0015C15.1845 22.159 14.9411 22.2466 14.6892 22.2504C14.5181 22.2648 14.3481 22.212 14.2153 22.1033C14.0824 21.9946 13.997 21.8384 13.9773 21.6679H15.7446C15.7495 21.6032 15.7545 21.5385 15.7545 21.4688C15.7495 20.7271 15.2915 20.2193 14.6245 20.2193ZM14.6145 20.6822C14.7709 20.6792 14.9221 20.7383 15.035 20.8465C15.1479 20.9548 15.2133 21.1033 15.2169 21.2597H13.9823C13.9914 21.1 14.0626 20.9501 14.1807 20.8422C14.2989 20.7343 14.4546 20.6769 14.6145 20.6822ZM27.6026 21.4688V19.3232H27.0848V20.5678C26.9964 20.4539 26.8821 20.3628 26.7513 20.3022C26.6205 20.2416 26.4771 20.2131 26.3331 20.2193C26.0123 20.235 25.7098 20.3735 25.4883 20.6061C25.2668 20.8387 25.1433 21.1476 25.1433 21.4688C25.1433 21.79 25.2668 22.0989 25.4883 22.3315C25.7098 22.5641 26.0123 22.7026 26.3331 22.7183C26.4771 22.7245 26.6205 22.6961 26.7513 22.6354C26.8821 22.5748 26.9964 22.4837 27.0848 22.3698V22.6586H27.6026V21.4688ZM28.4656 22.3137C28.4977 22.3135 28.5296 22.3198 28.5592 22.3323C28.5877 22.3442 28.6137 22.3614 28.6358 22.383C28.6577 22.4046 28.6752 22.4302 28.6873 22.4584C28.6998 22.4874 28.7062 22.5186 28.7062 22.5501C28.7062 22.5817 28.6998 22.6129 28.6873 22.6419C28.6751 22.67 28.6576 22.6954 28.6358 22.7169C28.6137 22.7385 28.5877 22.7558 28.5592 22.7679C28.5297 22.7806 28.4978 22.787 28.4656 22.7868C28.4182 22.7873 28.3718 22.7738 28.332 22.748C28.2923 22.7222 28.261 22.6853 28.2421 22.6419C28.2297 22.6129 28.2233 22.5817 28.2233 22.5501C28.2233 22.5186 28.2297 22.4874 28.2421 22.4584C28.2543 22.4302 28.2717 22.4046 28.2935 22.383C28.3155 22.3613 28.3416 22.344 28.3703 22.3323C28.4005 22.3198 28.4329 22.3135 28.4656 22.3137ZM28.4656 22.7346C28.4901 22.7348 28.5144 22.7299 28.5369 22.7201C28.5586 22.7107 28.5782 22.6974 28.5949 22.6807C28.6292 22.646 28.6485 22.5991 28.6485 22.5502C28.6485 22.5014 28.6292 22.4545 28.5949 22.4198C28.5782 22.4032 28.5586 22.3899 28.5369 22.3807C28.5144 22.3711 28.4901 22.3663 28.4656 22.3665C28.4406 22.3663 28.4159 22.3711 28.3929 22.3807C28.3709 22.3898 28.3509 22.403 28.334 22.4198C28.2996 22.4545 28.2803 22.5014 28.2803 22.5502C28.2803 22.5991 28.2996 22.646 28.334 22.6807C28.3509 22.6975 28.3709 22.7109 28.3929 22.7201C28.4159 22.7298 28.4406 22.7348 28.4656 22.7346ZM28.4795 22.4395C28.5028 22.438 28.5259 22.4447 28.5448 22.4584C28.5523 22.4646 28.5583 22.4724 28.5622 22.4813C28.5662 22.4902 28.5681 22.4999 28.5676 22.5097C28.5679 22.518 28.5664 22.5263 28.5633 22.5341C28.5601 22.5418 28.5554 22.5488 28.5494 22.5546C28.535 22.5674 28.5167 22.575 28.4975 22.5763L28.5694 22.6592H28.5132L28.4465 22.5769H28.425V22.6592H28.3781V22.4395H28.4795ZM28.425 22.4807V22.5393H28.479C28.4893 22.5398 28.4996 22.5372 28.5085 22.532C28.5122 22.5295 28.5151 22.5262 28.517 22.5223C28.5189 22.5184 28.5198 22.514 28.5195 22.5097C28.5198 22.5054 28.5189 22.5011 28.5169 22.4973C28.515 22.4935 28.5121 22.4903 28.5085 22.4879C28.4996 22.4827 28.4893 22.4802 28.479 22.4807H28.425ZM25.676 21.4688C25.6841 21.3283 25.733 21.1934 25.8169 21.0804C25.9007 20.9675 26.0157 20.8816 26.1478 20.8333C26.2799 20.785 26.4232 20.7764 26.5602 20.8086C26.6971 20.8407 26.8216 20.9123 26.9183 21.0144C27.015 21.1164 27.0798 21.2446 27.1046 21.383C27.1293 21.5215 27.113 21.6642 27.0577 21.7935C27.0024 21.9227 26.9104 22.033 26.7931 22.1107C26.6759 22.1883 26.5385 22.23 26.3978 22.2304C26.2992 22.2318 26.2015 22.2127 26.1106 22.1743C26.0198 22.136 25.9379 22.0793 25.8701 22.0077C25.8023 21.9361 25.75 21.8513 25.7166 21.7585C25.6832 21.6658 25.6694 21.5671 25.676 21.4688ZM8.19265 21.4688V20.279H7.67489V20.5678C7.58652 20.4539 7.47217 20.3628 7.34139 20.3022C7.21061 20.2416 7.0672 20.2131 6.92319 20.2193C6.60238 20.235 6.29992 20.3735 6.07844 20.6061C5.85695 20.8387 5.73342 21.1476 5.73342 21.4688C5.73342 21.79 5.85695 22.0989 6.07844 22.3315C6.29992 22.5641 6.60238 22.7026 6.92319 22.7183C7.06721 22.7245 7.21061 22.6961 7.34139 22.6354C7.47217 22.5748 7.58652 22.4837 7.67489 22.3698V22.6586H8.19265V21.4688ZM6.2661 21.4688C6.27414 21.3283 6.32311 21.1934 6.40695 21.0804C6.49079 20.9675 6.60584 20.8816 6.73792 20.8333C6.87 20.785 7.01334 20.7764 7.15025 20.8086C7.28716 20.8407 7.41166 20.9123 7.5084 21.0144C7.60514 21.1164 7.66989 21.2446 7.69466 21.3831C7.71943 21.5215 7.70314 21.6642 7.6478 21.7935C7.59246 21.9227 7.50049 22.033 7.38323 22.1107C7.26597 22.1883 7.12855 22.23 6.98791 22.2304C6.88934 22.2318 6.79155 22.2127 6.70072 22.1743C6.60989 22.136 6.52799 22.0793 6.46018 22.0077C6.39237 21.9361 6.34011 21.8513 6.30671 21.7585C6.27331 21.6658 6.25948 21.5671 6.2661 21.4688Z" fill="#231F20"/>
<path d="M18.4208 2.14404H10.5791V16.2358H18.4208V2.14404Z" fill="#79868F"/>
<path d="M11.0772 9.19046C11.076 7.83333 11.3835 6.4937 11.9766 5.27299C12.5696 4.05227 13.4326 2.98247 14.5002 2.14458C13.1781 1.1054 11.5903 0.459155 9.91835 0.279699C8.24636 0.100243 6.55761 0.394822 5.04512 1.12977C3.53263 1.86471 2.25743 3.01036 1.36527 4.43578C0.473118 5.8612 0 7.50887 0 9.19046C0 10.8721 0.473118 12.5197 1.36527 13.9452C2.25743 15.3706 3.53263 16.5162 5.04512 17.2512C6.55761 17.9861 8.24636 18.2807 9.91835 18.1012C11.5903 17.9218 13.1781 17.2755 14.5002 16.2364C13.4326 15.3985 12.5696 14.3287 11.9766 13.108C11.3835 11.8872 11.076 10.5476 11.0772 9.19046Z" fill="#424B54"/>
<path d="M28.9997 9.19046C28.9998 10.872 28.5267 12.5197 27.6346 13.9451C26.7425 15.3705 25.4674 16.5162 23.9549 17.2512C22.4424 17.9861 20.7537 18.2807 19.0817 18.1012C17.4098 17.9218 15.822 17.2755 14.5 16.2363C15.5667 15.3976 16.429 14.3276 17.0219 13.1071C17.6148 11.8866 17.9229 10.5474 17.9229 9.19046C17.9229 7.83354 17.6148 6.49433 17.0219 5.27381C16.429 4.05329 15.5667 2.98332 14.5 2.14458C15.822 1.1054 17.4098 0.459152 19.0817 0.279697C20.7537 0.100243 22.4424 0.394828 23.9549 1.12978C25.4674 1.86473 26.7425 3.01039 27.6346 4.43581C28.5267 5.86123 28.9998 7.50889 28.9997 9.19046Z" fill="#A3ACB5"/>
<path d="M28.1448 14.7434V14.4549H28.2611V14.3961H27.9648V14.4549H28.0812V14.7434H28.1448ZM28.72 14.7434V14.3955H28.6291L28.5247 14.6348L28.4202 14.3955H28.3293V14.7434H28.3935V14.481L28.4914 14.7072H28.5579L28.6559 14.4804V14.7434H28.72Z" fill="#79868F"/>
</svg>
