<svg width="29" height="29" viewBox="0 0 29 29" fill="none" xmlns="http://www.w3.org/2000/svg">
<path d="M2.72281 10.5359C2.70799 10.5362 2.69426 10.5364 2.68172 10.5365L0 10.5365V18.4456H2.59141V13.7812H2.76518L4.20976 18.4456H6.15947L7.60405 13.7847H7.77782V18.4456H10.3692V10.5365L7.8267 10.5365C7.80698 10.5365 7.7855 10.5362 7.76245 10.5359C7.40033 10.5309 6.65358 10.5207 6.34375 11.5664C6.15119 12.2162 5.79741 13.4308 5.2824 15.2101H5.08682C4.60659 13.5224 4.25663 12.3078 4.03693 11.5664C3.72656 10.5189 3.01427 10.531 2.72281 10.5359Z" fill="#4B545D"/>
<path d="M14.0904 15.2009V10.5365H11.4449V18.4456H13.9526C13.9526 18.4456 14.7141 18.3765 15.0552 17.6167L16.7779 13.7812H16.9846V18.4456H19.6302V10.5365H17.1225C17.1225 10.5365 16.3955 10.6022 16.0544 11.3654L14.2972 15.2009H14.0904Z" fill="#4B545D"/>
<path d="M25.9634 16.0896C27.2464 16.0896 28.4053 15.3407 28.7743 14.295H20.6733V18.4456H23.189V16.0896H25.9634Z" fill="#4B545D"/>
<path d="M20.5413 10.5365H26.0847C28.2176 10.5365 29.2486 12.3413 28.9491 13.8047H23.7594C22.1896 13.8047 20.6733 12.2974 20.5413 10.5365Z" fill="#4B545D"/>
</svg>
