<svg width="14" height="14" viewBox="0 0 14 14" fill="none" xmlns="http://www.w3.org/2000/svg">
<g clip-path="url(#clip0_318_2195)">
<path d="M8.77868 2.91732C9.34844 3.02848 9.87207 3.30713 10.2826 3.71761C10.693 4.12809 10.9717 4.65172 11.0828 5.22148M8.77868 0.583984C9.96242 0.715489 11.0663 1.24559 11.909 2.08724C12.7517 2.92889 13.2832 4.03207 13.4162 5.21565M12.8328 9.87065V11.6207C12.8335 11.7831 12.8002 11.9439 12.7351 12.0928C12.6701 12.2416 12.5746 12.3752 12.4549 12.4851C12.3352 12.5949 12.1938 12.6785 12.04 12.7306C11.8861 12.7826 11.723 12.8019 11.5612 12.7873C9.76617 12.5923 8.04193 11.9789 6.52701 10.9965C5.11758 10.1009 3.92263 8.90592 3.02701 7.49648C2.04117 5.97469 1.42766 4.24206 1.23618 2.43898C1.2216 2.27767 1.24077 2.11509 1.29247 1.9616C1.34417 1.8081 1.42726 1.66705 1.53646 1.54743C1.64566 1.42781 1.77857 1.33223 1.92672 1.26679C2.07488 1.20135 2.23505 1.16747 2.39701 1.16732H4.14701C4.43011 1.16453 4.70456 1.26478 4.91921 1.44938C5.13386 1.63398 5.27406 1.89033 5.31368 2.17065C5.38754 2.73069 5.52453 3.28058 5.72201 3.80982C5.8005 4.01861 5.81748 4.24552 5.77096 4.46366C5.72443 4.68181 5.61635 4.88205 5.45951 5.04065L4.71868 5.78148C5.54909 7.24189 6.75828 8.45108 8.21868 9.28148L8.95951 8.54065C9.11812 8.38381 9.31835 8.27573 9.5365 8.22921C9.75465 8.18268 9.98156 8.19967 10.1903 8.27815C10.7196 8.47564 11.2695 8.61262 11.8295 8.68648C12.1129 8.72646 12.3717 8.86919 12.5567 9.08752C12.7417 9.30586 12.8399 9.58457 12.8328 9.87065Z" stroke-linecap="round" stroke-linejoin="round"/>
</g>
<defs>
<clipPath id="clip0_318_2195">
<rect width="14" height="14" fill="white"/>
</clipPath>
</defs>
</svg>
