<svg width="29" height="29" viewBox="0 0 29 29" fill="none" xmlns="http://www.w3.org/2000/svg">
<path d="M14.3589 9.96425L12.4215 19.0222H10.078L12.0156 9.96425H14.3589ZM24.2177 15.8131L25.4511 12.4116L26.1609 15.8131H24.2177ZM26.8332 19.0222H29L27.107 9.96425H25.1082C24.6578 9.96425 24.278 10.2254 24.1099 10.6282L20.5938 19.0222H23.0548L23.5434 17.6694H26.5494L26.8332 19.0222ZM20.7158 16.0651C20.726 13.6745 17.4112 13.5421 17.4334 12.474C17.4405 12.1494 17.7502 11.8037 18.427 11.7153C18.7625 11.6721 19.6884 11.6371 20.738 12.1207L21.1485 10.1992C20.5848 9.99522 19.8594 9.79883 18.9566 9.79883C16.6401 9.79883 15.0104 11.0293 14.9974 12.7928C14.9825 14.0969 16.1615 14.824 17.0479 15.2583C17.9618 15.7022 18.268 15.9868 18.2636 16.3835C18.2572 16.9912 17.5348 17.2603 16.8621 17.2705C15.6834 17.2889 15 16.9519 14.4555 16.6981L14.0301 18.6838C14.5785 18.9348 15.589 19.1532 16.6354 19.1644C19.0982 19.1644 20.7085 17.9483 20.7158 16.0651ZM11.0105 9.96425L7.21358 19.0222H4.73687L2.86828 11.7933C2.75501 11.3488 2.6562 11.1854 2.3117 10.9976C1.74819 10.6916 0.817966 10.4053 0 10.2273L0.0554145 9.96425H4.04277C4.55066 9.96425 5.00762 10.3022 5.12395 10.8873L6.11101 16.1293L8.54861 9.96425H11.0105Z" fill="#343D46"/>
</svg>
