<svg width="26" height="26" viewBox="0 0 26 26" xmlns="http://www.w3.org/2000/svg">
<path fill-rule="evenodd" clip-rule="evenodd" d="M13.0076 0.500488C9.61196 0.500488 9.1869 0.515146 7.85309 0.573775C6.52416 0.632404 5.61052 0.847378 4.81902 1.15518C3.99333 1.47764 3.29466 1.9027 2.60088 2.60137C1.90222 3.29515 1.47715 3.99381 1.15469 4.81462C0.84689 5.611 0.631916 6.51976 0.573287 7.84869C0.514657 9.18739 0.5 9.61245 0.5 13.0081C0.5 16.4037 0.514657 16.8287 0.573287 18.1625C0.631916 19.4915 0.84689 20.4051 1.15469 21.1966C1.47715 22.0223 1.90222 22.721 2.60088 23.4148C3.29466 24.1085 3.99333 24.5385 4.81414 24.8561C5.61052 25.1639 6.51927 25.3788 7.8482 25.4375C9.18201 25.4961 9.60708 25.5107 13.0027 25.5107C16.3983 25.5107 16.8234 25.4961 18.1572 25.4375C19.4861 25.3788 20.3997 25.1639 21.1912 24.8561C22.0121 24.5385 22.7107 24.1085 23.4045 23.4148C24.0983 22.721 24.5282 22.0223 24.8458 21.2015C25.1536 20.4051 25.3686 19.4964 25.4272 18.1674C25.4858 16.8336 25.5005 16.4086 25.5005 13.0129C25.5005 9.61734 25.4858 9.19227 25.4272 7.85846C25.3686 6.52953 25.1536 5.61589 24.8458 4.8244C24.538 3.99381 24.1129 3.29515 23.4143 2.60137C22.7205 1.90759 22.0218 1.47764 21.201 1.16007C20.4046 0.852264 19.4959 0.63729 18.1669 0.578661C16.8282 0.515146 16.4032 0.500488 13.0076 0.500488ZM13.0068 6.58392C9.45975 6.58392 6.58203 9.46164 6.58203 13.0087C6.58203 16.5558 9.45975 19.4335 13.0068 19.4335C16.5539 19.4335 19.4316 16.5558 19.4316 13.0087C19.4316 9.46164 16.5539 6.58392 13.0068 6.58392ZM13.0068 17.1763C10.7056 17.1763 8.83926 15.3099 8.83926 13.0087C8.83926 10.7075 10.7056 8.84115 13.0068 8.84115C15.308 8.84115 17.1744 10.7075 17.1744 13.0087C17.1744 15.3099 15.308 17.1763 13.0068 17.1763ZM19.6874 7.82854C20.5131 7.82854 21.1874 7.15919 21.1874 6.32861C21.1874 5.50291 20.5131 4.82867 19.6874 4.82867C18.8617 4.82867 18.1875 5.49803 18.1875 6.32861C18.1875 7.1543 18.8568 7.82854 19.6874 7.82854Z" fill="url(#paint0_linear_320_2701)"/>
<defs>
<linearGradient id="paint0_linear_320_2701" x1="13.0002" y1="0.500488" x2="13.0002" y2="25.5107" gradientUnits="userSpaceOnUse">
<stop stop-color="#EE2183"/>
<stop offset="1" stop-color="#FF8D54"/>
</linearGradient>
</defs>
</svg>
