<svg width="40" height="40" viewBox="0 0 40 40" fill="none" xmlns="http://www.w3.org/2000/svg">
<path d="M20.1483 20L19.9824 36.0641" stroke="#5B6773" stroke-width="2" stroke-linecap="round" stroke-linejoin="round"/>
<path d="M34.3574 27.3959V12.6045C34.3574 12.3832 34.2986 12.1658 34.1871 11.9746C34.0755 11.7834 33.9152 11.6252 33.7225 11.5163L20.5975 4.09783C20.4098 3.99177 20.198 3.93604 19.9824 3.93604C19.7669 3.93604 19.555 3.99177 19.3673 4.09783L6.24235 11.5163C6.04964 11.6252 5.88932 11.7834 5.77776 11.9746C5.6662 12.1658 5.60742 12.3832 5.60742 12.6045V27.3959C5.60742 27.6172 5.6662 27.8346 5.77776 28.0258C5.88931 28.217 6.04964 28.3751 6.24235 28.4841L19.3673 35.9025C19.555 36.0086 19.7669 36.0643 19.9824 36.0643C20.198 36.0643 20.4098 36.0086 20.5975 35.9025L33.7225 28.4841C33.9152 28.3751 34.0755 28.217 34.1871 28.0258C34.2986 27.8346 34.3574 27.6172 34.3574 27.3959V27.3959Z" stroke="#5B6773" stroke-width="2" stroke-linecap="round" stroke-linejoin="round"/>
<path d="M34.1859 11.9729L20.1479 19.9999L5.7793 11.9712" stroke="#5B6773" stroke-width="2" stroke-linecap="round" stroke-linejoin="round"/>
</svg>
