<svg width="30" height="30" viewBox="0 0 30 30" fill="none" xmlns="http://www.w3.org/2000/svg">
<path d="M29.8812 5.95446C29.1091 6.97335 28.1758 7.86213 27.1173 8.58648C27.1173 8.85263 27.1173 9.11878 27.1173 9.39974C27.1257 14.2331 25.1741 18.8677 21.7 22.2646C18.2257 25.6614 13.5195 27.5363 8.63652 27.4689C5.8135 27.4782 3.02662 26.8406 0.494222 25.6058C0.357664 25.5468 0.269601 25.4132 0.270117 25.2657V25.1031C0.270117 24.8907 0.444031 24.7187 0.65856 24.7187C3.43352 24.6281 6.10947 23.6763 8.30783 21.998C5.79611 21.9478 3.53621 20.4758 2.49617 18.2125C2.44365 18.089 2.45999 17.947 2.53934 17.8383C2.61868 17.7296 2.74953 17.6698 2.88461 17.6803C3.64798 17.7561 4.41898 17.6859 5.1555 17.4732C2.38277 16.9038 0.29936 14.6267 0.00119128 11.8395C-0.00939883 11.7058 0.0511658 11.5763 0.161024 11.4977C0.270865 11.4193 0.414122 11.403 0.539043 11.4551C1.28311 11.78 2.08635 11.951 2.89956 11.9577C0.469982 10.3803 -0.579436 7.37979 0.344813 4.65325C0.440223 4.38831 0.669432 4.19258 0.948217 4.13801C1.22698 4.08343 1.51423 4.17804 1.70435 4.38709C4.98292 7.83897 9.4877 9.89595 14.2688 10.1243C14.1465 9.64084 14.0863 9.14401 14.0896 8.64562C14.1343 6.03228 15.7689 3.70427 18.2281 2.75146C20.6871 1.79867 23.484 2.40964 25.3096 4.29836C26.5538 4.06385 27.7568 3.65039 28.8802 3.07108C28.9625 3.02026 29.0669 3.02026 29.1492 3.07108C29.2005 3.15252 29.2005 3.25579 29.1492 3.33723C28.605 4.56986 27.6858 5.60369 26.5198 6.29455C27.5409 6.1774 28.544 5.93911 29.5078 5.58481C29.5889 5.53017 29.6955 5.53017 29.7766 5.58481C29.8446 5.61556 29.8955 5.67439 29.9156 5.74562C29.9357 5.81685 29.9231 5.89324 29.8812 5.95446Z" fill="#1877F2"/>
</svg>
